<svg xmlns="http://www.w3.org/2000/svg" xmlns:xlink="http://www.w3.org/1999/xlink"  viewBox="0 0 40 40"><path d="M 31.25 10 L 31.25 26.25 C 31.25 26.94 30.69 27.5 30 27.5 C 29.31 27.5 28.75 26.94 28.75 26.25 L 28.75 13.017 L 10.883 30.883 C 10.572 31.218 10.102 31.355 9.66 31.242 C 9.217 31.129 8.871 30.783 8.758 30.34 C 8.645 29.898 8.782 29.428 9.117 29.117 L 26.983 11.25 L 13.75 11.25 C 13.06 11.25 12.5 10.69 12.5 10 C 12.5 9.31 13.06 8.75 13.75 8.75 L 30 8.75 C 30.69 8.75 31.25 9.31 31.25 10 Z" fill="#000"></path></svg>